<svg width="279" height="267" viewBox="0 0 279 267" fill="none" xmlns="http://www.w3.org/2000/svg">
   <g opacity="0.5">
      <path d="M58.75 3.11251C64.7833 -0.370833 72.2167 -0.370836 78.25 3.1125L126.75 31.114C132.783 34.5973 136.5 41.0348 136.5 48.0015V104.004C136.5 110.971 132.783 117.409 126.75 120.892L78.25 148.893C72.2167 152.377 64.7833 152.377 58.75 148.893L10.25 120.892C4.21668 117.409 0.5 110.971 0.5 104.004V48.0015C0.5 41.0348 4.21668 34.5973 10.25 31.114L58.75 3.11251ZM76.25 22.396L111.05 42.4878C115.846 45.2566 118.8 50.3736 118.8 55.9112V96.0948C118.8 101.632 115.846 106.749 111.05 109.518L76.25 129.61C71.4543 132.379 65.5457 132.379 60.75 129.61L25.95 109.518C21.1543 106.749 18.2 101.632 18.2 96.0948V55.9112C18.2 50.3736 21.1543 45.2566 25.95 42.4878L60.75 22.396C65.5457 19.6272 71.4543 19.6272 76.25 22.396ZM78.75 18.0659C72.4073 14.4039 64.5927 14.4039 58.25 18.0659L23.45 38.1577C17.1073 41.8196 13.2 48.5872 13.2 55.9112V96.0948C13.2 103.419 17.1073 110.186 23.45 113.848L58.25 133.94C64.5927 137.602 72.4073 137.602 78.75 133.94L113.55 113.848C119.893 110.186 123.8 103.419 123.8 96.0948V55.9112C123.8 48.5872 119.893 41.8196 113.55 38.1577L78.75 18.0659Z" fill="#FFB868" stroke="#FFB868"/>
      <path d="M109.967 237.651C108.727 236.41 107.833 234.863 107.379 233.168L108.828 232.78C108.638 232.072 108.538 231.333 108.538 230.58V228.561H107.038V224.523H108.538V220.485H107.038V216.448H108.538V212.41H107.038V208.372H108.538V204.334H107.038V200.297H108.538V196.259H107.038V192.221H108.538V188.183H107.038V184.146H108.538V182.127C108.538 181.374 108.638 180.635 108.828 179.927L107.379 179.539C107.833 177.844 108.727 176.296 109.967 175.056L111.028 176.116C111.546 175.598 112.136 175.142 112.788 174.766L114.537 173.756L113.787 172.457L117.284 170.438L118.034 171.737L121.53 169.718L120.78 168.419L124.277 166.4L125.027 167.699L128.524 165.681L127.774 164.382L131.271 162.363L132.021 163.662L135.518 161.643L134.768 160.344L138.264 158.325L139.014 159.624L142.511 157.605L141.761 156.306L145.258 154.287L146.008 155.586L149.505 153.567L148.755 152.268L152.252 150.249L153.002 151.548L154.75 150.539C155.402 150.162 156.092 149.879 156.8 149.69L156.412 148.241C158.107 147.787 159.893 147.787 161.588 148.241L161.2 149.69C161.908 149.879 162.598 150.162 163.25 150.539L164.998 151.548L165.748 150.249L169.245 152.268L168.495 153.567L171.992 155.586L172.742 154.287L176.239 156.306L175.489 157.605L178.986 159.624L179.736 158.325L183.232 160.344L182.482 161.643L185.979 163.662L186.729 162.363L190.226 164.382L189.476 165.681L192.973 167.699L193.723 166.4L197.22 168.419L196.47 169.718L199.966 171.737L200.716 170.438L204.213 172.457L203.463 173.756L205.212 174.766C205.864 175.142 206.454 175.598 206.972 176.116L208.033 175.056C209.273 176.296 210.167 177.844 210.621 179.539L209.172 179.927C209.362 180.635 209.462 181.374 209.462 182.127V184.146H210.962V188.183H209.462V192.221H210.962V196.259H209.462V200.297H210.962V204.334H209.462V208.372H210.962V212.41H209.462V216.448H210.962V220.485H209.462V224.523H210.962V228.561H209.462V230.58C209.462 231.333 209.362 232.072 209.172 232.78L210.621 233.168C210.167 234.863 209.273 236.41 208.033 237.651L206.972 236.59C206.454 237.109 205.864 237.564 205.212 237.941L203.463 238.95L204.213 240.249L200.716 242.268L199.966 240.969L196.47 242.988L197.22 244.287L193.723 246.306L192.973 245.007L189.476 247.026L190.226 248.325L186.729 250.344L185.979 249.045L182.482 251.064L183.232 252.363L179.736 254.382L178.986 253.083L175.489 255.101L176.239 256.4L172.742 258.419L171.992 257.12L168.495 259.139L169.245 260.438L165.748 262.457L164.998 261.158L163.25 262.167C162.598 262.544 161.908 262.827 161.2 263.017L161.588 264.466C159.893 264.92 158.107 264.92 156.412 264.466L156.8 263.017C156.092 262.827 155.402 262.544 154.75 262.167L153.002 261.158L152.252 262.457L148.755 260.438L149.505 259.139L146.008 257.12L145.258 258.419L141.761 256.4L142.511 255.101L139.014 253.083L138.264 254.382L134.768 252.363L135.518 251.064L132.021 249.045L131.271 250.344L127.774 248.325L128.524 247.026L125.027 245.007L124.277 246.306L120.78 244.287L121.53 242.988L118.034 240.969L117.284 242.268L113.787 240.249L114.537 238.95L112.788 237.941C112.136 237.564 111.546 237.109 111.028 236.59L109.967 237.651Z" fill="#FFB868" stroke="#FFB868" stroke-width="3" stroke-dasharray="4 4"/>
      <path d="M224.776 138.132C224.032 137.387 223.496 136.459 223.224 135.442L224.672 135.054C224.572 134.679 224.519 134.288 224.519 133.889V131.967H223.019V128.121H224.519V124.276H223.019V120.431H224.519V116.585H223.019V112.74H224.519V110.817C224.519 110.418 224.572 110.027 224.672 109.653L223.224 109.264C223.496 108.248 224.032 107.319 224.776 106.575L225.837 107.635C226.112 107.361 226.424 107.12 226.769 106.92L228.434 105.959L227.684 104.66L231.014 102.737L231.764 104.036L235.095 102.114L234.345 100.815L237.675 98.8919L238.425 100.191L241.755 98.2683L241.005 96.9693L244.335 95.0466L245.085 96.3457L246.75 95.3844C247.096 95.1849 247.46 95.0351 247.835 94.9347L247.447 93.4858C248.464 93.2134 249.536 93.2134 250.553 93.4858L250.165 94.9347C250.54 95.0351 250.904 95.1849 251.25 95.3844L252.915 96.3457L253.665 95.0466L256.995 96.9693L256.245 98.2683L259.575 100.191L260.325 98.8919L263.655 100.815L262.905 102.114L266.236 104.036L266.986 102.737L270.316 104.66L269.566 105.959L271.231 106.92C271.576 107.12 271.888 107.361 272.163 107.635L273.224 106.575C273.968 107.319 274.504 108.248 274.776 109.264L273.328 109.653C273.428 110.027 273.481 110.418 273.481 110.817V112.74H274.981V116.585H273.481V120.431H274.981V124.276H273.481V128.121H274.981V131.967H273.481V133.889C273.481 134.288 273.428 134.679 273.328 135.054L274.776 135.442C274.504 136.459 273.968 137.387 273.224 138.132L272.163 137.071C271.888 137.346 271.576 137.587 271.231 137.786L269.566 138.748L270.316 140.047L266.986 141.969L266.236 140.67L262.905 142.593L263.655 143.892L260.325 145.815L259.575 144.516L256.245 146.438L256.995 147.737L253.665 149.66L252.915 148.361L251.25 149.322C250.904 149.522 250.54 149.671 250.165 149.772L250.553 151.221C249.536 151.493 248.464 151.493 247.447 151.221L247.835 149.772C247.46 149.671 247.096 149.522 246.75 149.322L245.085 148.361L244.335 149.66L241.005 147.737L241.755 146.438L238.425 144.516L237.675 145.815L234.345 143.892L235.095 142.593L231.764 140.67L231.014 141.969L227.684 140.047L228.434 138.748L226.769 137.786C226.424 137.587 226.112 137.346 225.837 137.071L224.776 138.132Z" fill="#FFB868" stroke="#FFB868" stroke-width="3" stroke-dasharray="4 4"/>
   </g>
</svg>
