<svg width="98" height="44" viewBox="0 0 98 44" fill="none" xmlns="http://www.w3.org/2000/svg">
<mask id="mask0_2_83" style="mask-type:alpha" maskUnits="userSpaceOnUse" x="2" y="7" width="94" height="36">
<path d="M2.27557 35V8.81818H7.81108V30.4361H19.0355V35H2.27557ZM31.4712 35.3835C29.4854 35.3835 27.7681 34.9616 26.3192 34.1179C24.8789 33.2656 23.7667 32.081 22.9826 30.5639C22.1985 29.0384 21.8065 27.2699 21.8065 25.2585C21.8065 23.2301 22.1985 21.4574 22.9826 19.9403C23.7667 18.4148 24.8789 17.2301 26.3192 16.3864C27.7681 15.5341 29.4854 15.108 31.4712 15.108C33.457 15.108 35.1701 15.5341 36.6104 16.3864C38.0593 17.2301 39.1758 18.4148 39.9599 19.9403C40.744 21.4574 41.136 23.2301 41.136 25.2585C41.136 27.2699 40.744 29.0384 39.9599 30.5639C39.1758 32.081 38.0593 33.2656 36.6104 34.1179C35.1701 34.9616 33.457 35.3835 31.4712 35.3835ZM31.4968 31.1648C32.4002 31.1648 33.1545 30.9091 33.7596 30.3977C34.3647 29.8778 34.8207 29.1705 35.1275 28.2756C35.4428 27.3807 35.6005 26.3622 35.6005 25.2202C35.6005 24.0781 35.4428 23.0597 35.1275 22.1648C34.8207 21.2699 34.3647 20.5625 33.7596 20.0426C33.1545 19.5227 32.4002 19.2628 31.4968 19.2628C30.5849 19.2628 29.8178 19.5227 29.1957 20.0426C28.582 20.5625 28.1175 21.2699 27.8022 22.1648C27.4954 23.0597 27.342 24.0781 27.342 25.2202C27.342 26.3622 27.4954 27.3807 27.8022 28.2756C28.1175 29.1705 28.582 29.8778 29.1957 30.3977C29.8178 30.9091 30.5849 31.1648 31.4968 31.1648ZM53.5238 42.7727C51.7596 42.7727 50.2468 42.5298 48.9854 42.044C47.7326 41.5668 46.7354 40.9148 45.994 40.0881C45.2525 39.2614 44.771 38.3324 44.5494 37.3011L49.5863 36.6236C49.7397 37.0156 49.9826 37.3821 50.315 37.723C50.6474 38.0639 51.0863 38.3366 51.6317 38.5412C52.1857 38.7543 52.859 38.8608 53.6516 38.8608C54.8363 38.8608 55.8121 38.571 56.5792 37.9915C57.3548 37.4205 57.7425 36.4616 57.7425 35.1151V31.5227H57.5124C57.2738 32.0682 56.9158 32.5838 56.4386 33.0696C55.9613 33.5554 55.3477 33.9517 54.5977 34.2585C53.8477 34.5653 52.9528 34.7188 51.913 34.7188C50.4386 34.7188 49.0962 34.3778 47.886 33.696C46.6843 33.0057 45.7255 31.9531 45.0096 30.5384C44.3022 29.1151 43.9485 27.3168 43.9485 25.1435C43.9485 22.919 44.3107 21.0611 45.0352 19.5696C45.7596 18.0781 46.7227 16.9616 47.9244 16.2202C49.1346 15.4787 50.4599 15.108 51.9002 15.108C52.9996 15.108 53.9201 15.2955 54.6616 15.6705C55.4031 16.0369 55.9996 16.4972 56.4514 17.0511C56.9116 17.5966 57.2653 18.1335 57.5124 18.6619H57.717V15.3636H63.1246V35.1918C63.1246 36.8622 62.7156 38.2599 61.8974 39.3849C61.0792 40.5099 59.9457 41.3537 58.4968 41.9162C57.0565 42.4872 55.3988 42.7727 53.5238 42.7727ZM53.6389 30.6278C54.5167 30.6278 55.2582 30.4105 55.8633 29.9759C56.4769 29.5327 56.9457 28.902 57.2695 28.0838C57.6019 27.2571 57.7681 26.2685 57.7681 25.1179C57.7681 23.9673 57.6062 22.9702 57.2823 22.1264C56.9585 21.2741 56.4897 20.6136 55.8761 20.1449C55.2624 19.6761 54.5167 19.4418 53.6389 19.4418C52.744 19.4418 51.9897 19.6847 51.3761 20.1705C50.7624 20.6477 50.2979 21.3125 49.9826 22.1648C49.6673 23.017 49.5096 24.0014 49.5096 25.1179C49.5096 26.2514 49.6673 27.2315 49.9826 28.0582C50.3065 28.8764 50.771 29.5114 51.3761 29.9631C51.9897 30.4062 52.744 30.6278 53.6389 30.6278ZM67.4585 35V15.3636H72.9045V35H67.4585ZM70.1942 12.8324C69.3846 12.8324 68.69 12.5639 68.1104 12.027C67.5394 11.4815 67.2539 10.8295 67.2539 10.071C67.2539 9.32102 67.5394 8.67756 68.1104 8.14062C68.69 7.59517 69.3846 7.32244 70.1942 7.32244C71.0039 7.32244 71.6942 7.59517 72.2653 8.14062C72.8448 8.67756 73.1346 9.32102 73.1346 10.071C73.1346 10.8295 72.8448 11.4815 72.2653 12.027C71.6942 12.5639 71.0039 12.8324 70.1942 12.8324ZM82.7131 23.6477V35H77.267V15.3636H82.4574V18.8281H82.6875C83.1222 17.6861 83.8509 16.7827 84.8736 16.1179C85.8963 15.4446 87.1364 15.108 88.5938 15.108C89.9574 15.108 91.1463 15.4062 92.1605 16.0028C93.1747 16.5994 93.9631 17.4517 94.5256 18.5597C95.0881 19.6591 95.3693 20.9716 95.3693 22.4972V35H89.9233V23.4688C89.9318 22.267 89.625 21.3295 89.0028 20.6562C88.3807 19.9744 87.5241 19.6335 86.4332 19.6335C85.7003 19.6335 85.0526 19.7912 84.4901 20.1065C83.9361 20.4219 83.5014 20.8821 83.1861 21.4872C82.8793 22.0838 82.7216 22.804 82.7131 23.6477Z" fill="black"/>
</mask>
<g mask="url(#mask0_2_83)">
<circle cx="73.5" cy="26.5" r="33.5" fill="#787878"/>
<circle cx="45.5" cy="1.5" r="33.5" fill="#FFA033"/>
<circle cx="6.5" cy="39.5" r="33.5" fill="#FF0000"/>
<circle cx="92" cy="42" r="22" fill="#FB7F7F"/>
</g>
</svg>
